
<svg aria-hidden="true" style="position: absolute; width: 0; height: 0; overflow: hidden;" version="1.1" xmlns="http://www.w3.org/2000/svg" xmlns:xlink="http://www.w3.org/1999/xlink">
<defs>
<symbol id="icon-facebook" viewBox="0 0 16 32">
<path d="M14.143 15.972h-4.034v14.865h-6.112v-14.865h-2.907v-5.224h2.907v-3.381c0-2.418 1.142-6.203 6.166-6.203l4.527 0.019v5.071h-3.285c-0.539 0-1.296 0.271-1.296 1.424v3.075h4.567l-0.534 5.219z"></path>
</symbol>
<symbol id="icon-telegram" viewBox="0 0 44 32">
<path d="M17.343 21.048l-0.675 8.86c0.966 0 1.384-0.387 1.885-0.852l4.527-4.038 9.381 6.412c1.72 0.895 2.933 0.424 3.397-1.477l6.157-26.929 0.002-0.002c0.546-2.374-0.92-3.302-2.596-2.72l-36.194 12.933c-2.47 0.895-2.433 2.18-0.42 2.762l9.253 2.686 21.494-12.552c1.011-0.625 1.931-0.279 1.175 0.346l-17.386 14.57z"></path>
</symbol>
<symbol id="icon-linkedin" viewBox="0 0 32 32">
<path d="M16 0c-8.788 0-16 7.212-16 16 0 7.499 5.262 14.312 12.25 16v-5.293c-0.692 0.152-1.33 0.156-2.034-0.052-0.946-0.279-1.714-0.909-2.284-1.869-0.364-0.613-1.008-1.278-1.68-1.23l-0.165-1.868c1.453-0.124 2.711 0.886 3.457 2.14 0.332 0.558 0.713 0.884 1.203 1.029 0.473 0.14 0.982 0.072 1.574-0.137 0.149-1.186 0.692-1.63 1.102-2.255v-0.001c-4.167-0.622-5.828-2.832-6.488-4.578-0.874-2.317-0.405-5.212 1.14-7.041 0.030-0.036 0.084-0.129 0.063-0.194-0.708-2.139 0.155-3.909 0.187-4.097 0.817 0.242 0.95-0.243 3.551 1.337l0.449 0.27c0.188 0.112 0.129 0.048 0.317 0.034 1.086-0.295 2.23-0.458 3.358-0.472 1.136 0.015 2.273 0.178 3.404 0.484l0.145 0.015c-0.013-0.002 0.040-0.009 0.127-0.062 3.248-1.968 3.132-1.324 4.003-1.608 0.032 0.188 0.883 1.987 0.182 4.099-0.095 0.291 2.816 2.956 1.203 7.235-0.659 1.746-2.32 3.957-6.487 4.578v0.001c0.534 0.814 1.176 1.247 1.173 2.927v6.608c6.988-1.688 12.25-8.501 12.25-16 0-8.788-7.212-16-16-16v0z"></path>
</symbol>
<symbol id="icon-home" viewBox="0 0 35 32">
<path d="M34.253 15.613c0.599-0.659 0.541-1.669-0.129-2.255l-14.772-12.926c-0.671-0.586-1.745-0.574-2.402 0.028l-14.822 13.587c-0.656 0.602-0.689 1.611-0.071 2.252l0.372 0.387c0.617 0.642 1.613 0.718 2.224 0.17l1.108-0.992v14.523c0 0.891 0.722 1.613 1.612 1.613h5.778c0.89 0 1.612-0.721 1.612-1.613v-10.16h7.37v10.16c-0.013 0.89 0.624 1.612 1.515 1.612h6.123c0.89 0 1.613-0.722 1.613-1.613v-14.318c0 0 0.306 0.268 0.683 0.6s1.168 0.066 1.767-0.594l0.42-0.462z"></path>
</symbol>
<symbol id="icon-quotes" viewBox="0 0 43 32">
<path d="M32.014 0c1.929 0 3.75 0.52 5.464 1.561s3.107 2.537 4.179 4.488c1.029 1.951 1.543 4.249 1.543 6.894s-0.643 5.225-1.929 7.74c-0.429 0.911-1.2 2.081-2.314 3.512-1.157 1.431-2.229 2.667-3.214 3.707l-4.050 4.098-2.893-4.813c2.014-1.257 3.793-2.818 5.336-4.683 1.543-1.821 2.314-3.491 2.314-5.008 0-0.78-0.171-1.409-0.514-1.886-1.5 1.084-3.171 1.626-5.014 1.626-1.329 0-2.593-0.412-3.793-1.236-1.243-0.78-2.229-1.821-2.957-3.122-0.771-1.258-1.157-2.558-1.157-3.902 0-1.518 0.45-2.97 1.35-4.358 0.857-1.388 1.993-2.515 3.407-3.382 1.371-0.824 2.786-1.236 4.243-1.236zM8.936 0c1.929 0 3.75 0.52 5.464 1.561s3.107 2.537 4.179 4.488c1.029 1.951 1.543 4.249 1.543 6.894 0 1.864-0.236 3.534-0.707 5.008-0.471 1.518-1.286 3.1-2.443 4.748-1.114 1.561-2.164 2.862-3.15 3.902-0.986 1.084-2.7 2.884-5.143 5.398l-2.893-4.813c2.014-1.257 3.793-2.818 5.336-4.683 1.543-1.821 2.314-3.491 2.314-5.008 0-0.78-0.171-1.409-0.514-1.886-1.5 1.084-3.171 1.626-5.014 1.626-1.329 0-2.593-0.412-3.793-1.236-1.243-0.78-2.229-1.821-2.957-3.122-0.771-1.258-1.157-2.558-1.157-3.902 0-1.518 0.429-2.97 1.286-4.358s1.993-2.515 3.407-3.382c1.371-0.824 2.786-1.236 4.243-1.236z"></path>
</symbol>
<symbol id="icon-points" viewBox="0 0 139 32">
<path d="M85.333 16c0 8.837-7.163 16-16 16s-16-7.163-16-16c0-8.837 7.163-16 16-16s16 7.163 16 16z"></path>
<path d="M32 16c0 8.837-7.163 16-16 16s-16-7.163-16-16c0-8.837 7.163-16 16-16s16 7.163 16 16z"></path>
<path d="M138.667 16c0 8.837-7.163 16-16 16s-16-7.163-16-16c0-8.837 7.163-16 16-16s16 7.163 16 16z"></path>
</symbol>
<symbol id="icon-close" viewBox="0 0 32 32">
<path stroke-linejoin="miter" stroke-linecap="butt" stroke-miterlimit="4" stroke-width="2" d="M2.519 2l26.963 28"></path>
<path stroke-linejoin="miter" stroke-linecap="butt" stroke-miterlimit="4" stroke-width="2" d="M2 29.481l28-26.963"></path>
</symbol>
<symbol id="icon-burger" viewBox="0 0 46 32">
<path stroke-linejoin="miter" stroke-linecap="butt" stroke-miterlimit="4" stroke-width="2.2857" d="M0 2.286h45.714"></path>
<path stroke-linejoin="miter" stroke-linecap="butt" stroke-miterlimit="4" stroke-width="2.2857" d="M0 16h45.714"></path>
<path stroke-linejoin="miter" stroke-linecap="butt" stroke-miterlimit="4" stroke-width="2.2857" d="M0 29.714h45.714"></path>
</symbol>
    <symbol id="icon-btnsvg" viewBox="0 0 22 32">
      <path fill="none" stroke="#d41443" stroke-width="6.4" stroke-miterlimit="4" stroke-linecap="round" stroke-linejoin="round" style="stroke: var(--color1, #d41443)" d="M3.2 3.2l14.169 12.8-14.169 12.8"></path>
    </symbol>
    
  
  
<symbol id="icon-ice_cream_close" viewBox="0 0 32 32">
<path fill="#ffa185" style="fill: var(--color1, #ffa185)" d="M11.349 21.378l0.872 7.86c0.057 0.511 0.387 0.915 0.903 1.040 1.919 0.466 3.839 0.459 5.739 0 0.515-0.124 0.849-0.528 0.906-1.040l0.872-7.86c0.036-0.314-0.246-0.572-0.556-0.508-2.549 0.527-5.198 0.685-6.866 0.329s-1.903-0.109-1.869 0.179z"></path>
<path fill="#e07a5f" style="fill: var(--color2, #e07a5f)" d="M11.349 21.378l0.162 1.459c2.758 0.548 5.247 0.388 7.644-0.107 0.31-0.064 0.591 0.194 0.556 0.508l-0.778 7.018c0.475-0.143 0.782-0.53 0.836-1.017l0.872-7.861c0.035-0.314-0.246-0.571-0.556-0.508-2.549 0.527-5.198 0.686-6.878 0.34s-1.889-0.105-1.857 0.167z"></path>
<path fill="#ffccbc" style="fill: var(--color3, #ffccbc)" d="M10.247 19c0 0.078-0.127 0.643-0.055 1.222s0.456 1.263 1.301 1.545c0.015 0.005 0.030 0.011 0.045 0.014 1.56 0.358 3.040 0.495 4.462 0.474 1.418 0.020 2.897-0.117 4.452-0.474 0.015-0.003 0.030-0.009 0.045-0.014 0.844-0.282 1.229-0.966 1.301-1.545s-0.055-1.144-0.055-1.222c0-0.325-0.324-0.55-0.628-0.436-1.784 0.673-3.477 0.936-5.121 0.936s-3.334-0.263-4.431-0.617c-1.097-0.355-1.314-0.145-1.315 0.117z"></path>
<path fill="#e89c87" style="fill: var(--color4, #e89c87)" d="M21.114 18.564c-1.784 0.673-3.477 0.936-5.121 0.936s-3.333-0.263-5.117-0.936l-0.628 0.436c0 0.078-0.128 0.644-0.055 1.222 1.973 0.861 4.036 1.127 5.801 1.138 2.278-0.056 3.89-0.347 5.804-1.138 0.072-0.579-0.055-1.145-0.055-1.222-0.045-0.486-0.446-0.494-0.628-0.436z"></path>
<path fill="#ed2175" style="fill: var(--color5, #ed2175)" d="M10.939 7.010c-1.533 0.349-2.213 2.605-2.205 3.838 0.087 0.726 0.168 1.383 0.652 1.787 2.139 0.223 4.63 0.304 6.579 0.262 0.53-0.004 0.959 0.415 0.959 0.945v1.44c-0 0.973 0.963 1.641 1.861 1.311v1.476c0 0.765 0.632 1.397 1.397 1.397s1.393-0.632 1.393-1.397v-0.55c0.146 0.053 0.301 0.087 0.464 0.087 0.765 0 1.397-0.633 1.397-1.398v-3.455c0.017-2.134-1.173-3.057-2.162-3.628s-2.136-0.618-3.261-0.563c-1.125 0.055-2.252 0.214-3.233 0.164s-1.775-0.28-2.392-0.982c-0.482-0.456-0.836-0.679-1.448-0.735z"></path>
<path fill="#ffa185" style="fill: var(--color1, #ffa185)" d="M20.18 19.466c-0.765-0-1.397-0.632-1.397-1.397v-1.476c-0.146 0.052-0.302 0.082-0.464 0.082-0.765-0-1.397-0.628-1.397-1.393v-0.491c-2.322 0.080-4.612-0.029-5.919-0.235s-1.518 0.002-1.519 0.26c-0.007 1.86-0.036 3.396 0.964 4.496 1.743 0.752 3.866 1.049 5.543 1.078 1.71 0.021 3.616-0.216 4.187-0.924z"></path>
<path fill="#ed2175" style="fill: var(--color5, #ed2175)" d="M13.549 2.559c-0.47 0.502-0.697 1.12-0.774 1.758 0.029-0.001 0.057-0.006 0.086-0.005v0.001c0.492 0.005 1.019 0.23 1.552 0.674 0.006 0.006 0.012 0.012 0.017 0.018 0.386 0.355 0.846 0.467 1.425 0.504s1.246-0.021 1.932 0.035c0.361 0.029 0.734 0.098 1.093 0.239 0.106-0.457 0.119-0.831 0.045-1.156-0.097-0.427-0.355-0.727-0.583-0.924s-0.423-0.326-0.529-0.45c-0.339-0.412 0.061-0.796-0.426-1.473-0.216-0.277-0.604-0.44-1.458-0.355s-1.787 0.499-2.382 1.134z"></path>
<path fill="#d9216d" style="fill: var(--color6, #d9216d)" d="M13.078 3.251v0.001c-0.164 0.336-0.258 0.697-0.302 1.065 0.585 0.087 1.223 0.338 1.637 0.669 0.006 0.005 0.012 0.012 0.017 0.018 0.386 0.355 0.846 0.467 1.425 0.504s1.246-0.021 1.932 0.034c0.361 0.029 0.734 0.097 1.093 0.238 0.102-0.44 0.116-0.801 0.051-1.118-0.368-0.11-0.73-0.169-1.059-0.195-0.8-0.065-1.493-0.007-1.95-0.034h-0.004c-0.376 0.032-0.572-0.144-0.817-0.276-0.605-0.504-1.299-0.844-2.026-0.906z"></path>
<path fill="#ed2175" style="fill: var(--color5, #ed2175)" d="M12.862 4.312c-0.070-0.001-0.14 0.003-0.209 0.012-0.551 0.067-0.977 0.414-1.26 0.816s-0.45 0.875-0.532 1.325c-0.037 0.203-0.057 0.399-0.058 0.588 0.045-0.014 0.088-0.032 0.135-0.043 0.612 0.055 0.966 0.279 1.448 0.735 0.617 0.702 1.411 0.932 2.392 0.982s2.108-0.109 3.233-0.164c1.022-0.050 2.061-0.012 2.984 0.423-0.24-1.244-0.642-2.081-1.196-2.62-0.592-0.577-1.324-0.768-2.011-0.824s-1.354 0.002-1.932-0.034c-0.579-0.037-1.039-0.149-1.425-0.504-0.006-0.006-0.011-0.012-0.017-0.018v0c-0.533-0.444-1.060-0.669-1.552-0.674z"></path>
<path fill="#e07a5f" style="fill: var(--color2, #e07a5f)" d="M9.486 14.816c-0.002 0.614-0.022 0.863 0.009 1.403 2.361 0.382 5.318 0.498 7.428 0.432v0.491c0 0.765 0.632 1.393 1.397 1.393 0.162 0 0.318-0.030 0.464-0.082v1.476c0 0.070 0.011 0.137 0.021 0.203 0.623-0.147 1.129-0.36 1.376-0.667-0.765-0-1.397-0.632-1.397-1.397v-1.476c-0.146 0.052-0.302 0.082-0.464 0.082-0.765-0-1.397-0.628-1.397-1.393v-0.491c-2.322 0.080-4.612-0.029-5.919-0.235s-1.518 0.002-1.519 0.26z"></path>
<path fill="#ffccbc" style="fill: var(--color3, #ffccbc)" d="M17.002 15.721c-0.157-0.9-0.079-1.895-0.079-2.838-2.266 0.054-4.576-0.037-6.888-0.336-0.803 0.012-1.472 0.703-1.469 1.304 0.009 0.275 0.026 0.479 0.075 0.669s0.164 0.401 0.34 0.519c0.351 0.234 0.631 0.216 1.908 0.402 1.35 0.252 3.722 0.365 6.113 0.28z"></path>
<path fill="#d9216d" style="fill: var(--color6, #d9216d)" d="M10.987 5.982c-0.129 0.352-0.157 0.725-0.183 1.071 0.636-0.042 1.232 0.364 1.583 0.692 0.617 0.702 1.411 0.932 2.392 0.982s2.108-0.109 3.233-0.164c1.020-0.050 2.056-0.012 2.978 0.42-0.090-0.461-0.198-0.877-0.332-1.231-0.923-0.264-1.857-0.271-2.697-0.23-1.189 0.059-2.3 0.207-3.129 0.165-1.77-0.047-2.274-1.697-3.843-1.705v-0z"></path>
<path fill="#d9216d" style="fill: var(--color6, #d9216d)" d="M16.398 1.378c-0.156 0.016-0.307 0.036-0.452 0.059 0.6 0.222 0.735 0.763 0.786 1.297-0.002 0.503 0.371 0.717 0.683 0.968 0.228 0.196 0.486 0.497 0.583 0.924 0.062 0.273 0.063 0.58-0.002 0.943-0.019 0.383 0.599 0.581 0.874 0.797 0.503 0.49 0.881 1.226 1.126 2.29 0.051 0.306 0.157 0.322 0.347 0.47 0.989 0.572 2.179 1.494 2.162 3.628v3.455c0 0.601-0.392 1.116-0.931 1.31 0.146 0.053 0.301 0.087 0.464 0.087 0.765 0 1.397-0.633 1.397-1.398v-3.455c0.017-2.134-1.173-3.056-2.162-3.628-0.091-0.052-0.184-0.096-0.277-0.14-0.24-1.244-0.642-2.081-1.196-2.62-0.281-0.274-0.593-0.458-0.917-0.585 0.106-0.457 0.119-0.83 0.045-1.155-0.097-0.427-0.355-0.727-0.583-0.924-0.387-0.295-0.722-0.509-0.683-0.968 0.014-0.87-0.493-1.407-1.263-1.356v0zM21.573 17.519c-0.147 0.053-0.302 0.087-0.466 0.087s-0.318-0.034-0.464-0.087v0.55c0 0.601-0.39 1.115-0.928 1.31 0.146 0.053 0.302 0.087 0.465 0.087 0.765 0 1.393-0.632 1.393-1.397zM15.034 12.897c-0.248 0.005-0.524 0.004-0.787 0.005 0.291 0.004 0.561 0.001 0.839 0-0.017-0.001-0.034-0.005-0.052-0.005zM17.852 16.594c0.001 0 0.001 0.001 0.002 0.001v-0.001c-0.001 0-0.001-0-0.002 0z"></path>
<path fill="#e89c87" style="fill: var(--color4, #e89c87)" d="M8.606 13.512c2.373 0.263 4.535 0.322 6.443 0.315 0.521-0.004 0.94 0.409 0.932 0.93-0.005 0.327-0.006 0.655 0.006 0.978 0.338-0.004 0.676-0.002 1.014-0.014-0.102-0.907-0.054-1.84-0.079-2.838-2.266 0.054-4.576-0.037-6.888-0.336-0.848-0.062-1.305 0.459-1.428 0.965z"></path>
</symbol>
<symbol id="icon-Vector" viewBox="0 0 22 32">
<path fill="none" stroke="#d41443" style="stroke: var(--color1, #d41443)" stroke-linejoin="round" stroke-linecap="round" stroke-miterlimit="4" stroke-width="6.4" d="M3.321 3.2l14.974 12.8-14.974 12.8"></path>
</symbol>
  
  </defs>
</svg>

