<svg aria-hidden="true" style="position: absolute; width: 0; height: 0; overflow: hidden;" version="1.1"
  xmlns="http://www.w3.org/2000/svg" xmlns:xlink="http://www.w3.org/1999/xlink">
  <defs>
    <symbol id="icon-facebook" viewBox="0 0 32 32">
      <path d="M16 32c8.837 0 16-7.163 16-16s-7.163-16-16-16c-8.837 0-16 7.163-16 16s7.163 16 16 16z"></path>
      <path fill="#fff" style="fill: var(--color2, #fff)"
        d="M20.446 15.982h-2.61v9.619h-3.955v-9.619h-1.881v-3.38h1.881v-2.187c0-1.564 0.739-4.014 3.99-4.014l2.929 0.012v3.281h-2.125c-0.349 0-0.839 0.175-0.839 0.921v1.989h2.955l-0.346 3.377z">
      </path>
    </symbol>
    <symbol id="icon-telegram" viewBox="0 0 32 32">
      <path d="M32 16c0 8.837-7.163 16-16 16s-16-7.163-16-16c0-8.837 7.163-16 16-16s16 7.163 16 16z"></path>
      <path fill="#fff" style="fill: var(--color2, #fff)"
        d="M12.867 18.375l-0.318 4.169c0.454 0 0.651-0.182 0.887-0.401l2.13-1.9 4.415 3.017c0.81 0.421 1.38 0.199 1.599-0.695l2.898-12.672 0.001-0.001c0.257-1.117-0.433-1.554-1.222-1.28l-17.032 6.086c-1.162 0.421-1.145 1.026-0.198 1.3l4.355 1.264 10.115-5.907c0.476-0.294 0.909-0.131 0.553 0.163l-8.182 6.857z">
      </path>
    </symbol>
    <symbol id="icon-github" viewBox="0 0 32 32">
      <path d="M32 16c0 8.837-7.163 16-16 16s-16-7.163-16-16c0-8.837 7.163-16 16-16s16 7.163 16 16z"></path>
      <path fill="#fff" style="fill: var(--color2, #fff)"
        d="M16 6.588c-5.169 0-9.412 4.242-9.412 9.412 0 4.411 3.095 8.419 7.206 9.412v-3.114c-0.407 0.089-0.782 0.092-1.197-0.030-0.556-0.164-1.008-0.535-1.344-1.1-0.214-0.361-0.593-0.752-0.988-0.723l-0.097-1.099c0.855-0.073 1.595 0.521 2.034 1.259 0.195 0.328 0.419 0.52 0.708 0.605 0.278 0.082 0.578 0.043 0.926-0.080 0.088-0.698 0.407-0.959 0.648-1.326v-0.001c-2.451-0.366-3.428-1.666-3.816-2.693-0.514-1.363-0.238-3.066 0.671-4.142 0.018-0.021 0.050-0.076 0.037-0.114-0.417-1.258 0.091-2.299 0.11-2.41 0.481 0.142 0.559-0.143 2.089 0.786l0.264 0.159c0.111 0.066 0.076 0.028 0.186 0.020 0.639-0.173 1.312-0.269 1.975-0.278 0.668 0.009 1.337 0.104 2.002 0.285l0.086 0.009c-0.007-0.001 0.023-0.005 0.075-0.036 1.911-1.157 1.842-0.779 2.355-0.946 0.019 0.111 0.519 1.169 0.107 2.411-0.056 0.171 1.657 1.739 0.708 4.256-0.388 1.027-1.365 2.328-3.816 2.693v0.001c0.314 0.479 0.692 0.734 0.69 1.722v3.887c4.111-0.993 7.206-5 7.206-9.412 0-5.169-4.242-9.412-9.412-9.412v0z">
      </path>
    </symbol>
    <symbol id="icon-home" viewBox="0 0 35 32">
      <path
        d="M34.253 15.613c0.599-0.659 0.541-1.669-0.129-2.255l-14.772-12.926c-0.671-0.586-1.745-0.574-2.402 0.028l-14.822 13.587c-0.656 0.602-0.689 1.611-0.071 2.252l0.372 0.387c0.617 0.642 1.613 0.718 2.224 0.17l1.108-0.992v14.523c0 0.891 0.722 1.613 1.612 1.613h5.778c0.89 0 1.612-0.721 1.612-1.613v-10.16h7.37v10.16c-0.013 0.89 0.624 1.612 1.515 1.612h6.123c0.89 0 1.613-0.722 1.613-1.613v-14.318c0 0 0.306 0.268 0.683 0.6s1.168 0.066 1.767-0.594l0.42-0.462z">
      </path>
    </symbol>
    <symbol id="icon-quotes" viewBox="0 0 43 32">
      <path
        d="M32.014 0c1.929 0 3.75 0.52 5.464 1.561s3.107 2.537 4.179 4.488c1.029 1.951 1.543 4.249 1.543 6.894s-0.643 5.225-1.929 7.74c-0.429 0.911-1.2 2.081-2.314 3.512-1.157 1.431-2.229 2.667-3.214 3.707l-4.050 4.098-2.893-4.813c2.014-1.257 3.793-2.818 5.336-4.683 1.543-1.821 2.314-3.491 2.314-5.008 0-0.78-0.171-1.409-0.514-1.886-1.5 1.084-3.171 1.626-5.014 1.626-1.329 0-2.593-0.412-3.793-1.236-1.243-0.78-2.229-1.821-2.957-3.122-0.771-1.258-1.157-2.558-1.157-3.902 0-1.518 0.45-2.97 1.35-4.358 0.857-1.388 1.993-2.515 3.407-3.382 1.371-0.824 2.786-1.236 4.243-1.236zM8.936 0c1.929 0 3.75 0.52 5.464 1.561s3.107 2.537 4.179 4.488c1.029 1.951 1.543 4.249 1.543 6.894 0 1.864-0.236 3.534-0.707 5.008-0.471 1.518-1.286 3.1-2.443 4.748-1.114 1.561-2.164 2.862-3.15 3.902-0.986 1.084-2.7 2.884-5.143 5.398l-2.893-4.813c2.014-1.257 3.793-2.818 5.336-4.683 1.543-1.821 2.314-3.491 2.314-5.008 0-0.78-0.171-1.409-0.514-1.886-1.5 1.084-3.171 1.626-5.014 1.626-1.329 0-2.593-0.412-3.793-1.236-1.243-0.78-2.229-1.821-2.957-3.122-0.771-1.258-1.157-2.558-1.157-3.902 0-1.518 0.429-2.97 1.286-4.358s1.993-2.515 3.407-3.382c1.371-0.824 2.786-1.236 4.243-1.236z">
      </path>
    </symbol>
    <symbol id="icon-points" viewBox="0 0 139 32">
      <path d="M85.333 16c0 8.837-7.163 16-16 16s-16-7.163-16-16c0-8.837 7.163-16 16-16s16 7.163 16 16z"></path>
      <path d="M32 16c0 8.837-7.163 16-16 16s-16-7.163-16-16c0-8.837 7.163-16 16-16s16 7.163 16 16z"></path>
      <path d="M138.667 16c0 8.837-7.163 16-16 16s-16-7.163-16-16c0-8.837 7.163-16 16-16s16 7.163 16 16z"></path>
    </symbol>
    <symbol id="icon-close" viewBox="0 0 32 32">
      <path stroke-linejoin="miter" stroke-linecap="butt" stroke-miterlimit="4" stroke-width="2" d="M2.519 2l26.963 28">
      </path>
      <path stroke-linejoin="miter" stroke-linecap="butt" stroke-miterlimit="4" stroke-width="2"
        d="M2 29.481l28-26.963"></path>
    </symbol>
    <symbol id="icon-burger" viewBox="0 0 46 32">
      <path stroke-linejoin="miter" stroke-linecap="butt" stroke-miterlimit="4" stroke-width="2.2857"
        d="M0 2.286h45.714"></path>
      <path stroke-linejoin="miter" stroke-linecap="butt" stroke-miterlimit="4" stroke-width="2.2857" d="M0 16h45.714">
      </path>
      <path stroke-linejoin="miter" stroke-linecap="butt" stroke-miterlimit="4" stroke-width="2.2857"
        d="M0 29.714h45.714"></path>
    </symbol>
    <symbol id="icon-btnsvg" viewBox="0 0 22 32">
      <path fill="none" stroke="#d41443" stroke-width="6.4" stroke-miterlimit="4" stroke-linecap="round"
        stroke-linejoin="round" style="stroke: var(--color1, #d41443)" d="M3.2 3.2l14.169 12.8-14.169 12.8"></path>
    </symbol>
    <symbol id="icon-btnsvg1" viewBox="0 0 22 32">
      <path fill="none" stroke="#FFFFFF" stroke-width="6.4" stroke-miterlimit="4" stroke-linecap="round"
        stroke-linejoin="round" style="stroke: var(--color1, #FFFFFF)" d="M3.2 3.2l14.169 12.8-14.169 12.8"></path>
    </symbol>
    <symbol id="icon-ellipse" viewBox="0 0 32 32">
      <path fill="#c7133e" style="fill: var(--color1, #c7133e)"
        d="M32 16c0 8.837-7.163 16-16 16s-16-7.163-16-16c0-8.837 7.163-16 16-16s16 7.163 16 16z"></path>
    </symbol>
    <symbol id="icon-ice_cream_close" viewBox="0 0 32 32">
      <path fill="#ffa185" style="fill: var(--color1, #ffa185)"
        d="M11.349 21.378l0.872 7.86c0.057 0.511 0.387 0.915 0.903 1.040 1.919 0.466 3.839 0.459 5.739 0 0.515-0.124 0.849-0.528 0.906-1.040l0.872-7.86c0.036-0.314-0.246-0.572-0.556-0.508-2.549 0.527-5.198 0.685-6.866 0.329s-1.903-0.109-1.869 0.179z">
      </path>
      <path fill="#e07a5f" style="fill: var(--color2, #e07a5f)"
        d="M11.349 21.378l0.162 1.459c2.758 0.548 5.247 0.388 7.644-0.107 0.31-0.064 0.591 0.194 0.556 0.508l-0.778 7.018c0.475-0.143 0.782-0.53 0.836-1.017l0.872-7.861c0.035-0.314-0.246-0.571-0.556-0.508-2.549 0.527-5.198 0.686-6.878 0.34s-1.889-0.105-1.857 0.167z">
      </path>
      <path fill="#ffccbc" style="fill: var(--color3, #ffccbc)"
        d="M10.247 19c0 0.078-0.127 0.643-0.055 1.222s0.456 1.263 1.301 1.545c0.015 0.005 0.030 0.011 0.045 0.014 1.56 0.358 3.040 0.495 4.462 0.474 1.418 0.020 2.897-0.117 4.452-0.474 0.015-0.003 0.030-0.009 0.045-0.014 0.844-0.282 1.229-0.966 1.301-1.545s-0.055-1.144-0.055-1.222c0-0.325-0.324-0.55-0.628-0.436-1.784 0.673-3.477 0.936-5.121 0.936s-3.334-0.263-4.431-0.617c-1.097-0.355-1.314-0.145-1.315 0.117z">
      </path>
      <path fill="#e89c87" style="fill: var(--color4, #e89c87)"
        d="M21.114 18.564c-1.784 0.673-3.477 0.936-5.121 0.936s-3.333-0.263-5.117-0.936l-0.628 0.436c0 0.078-0.128 0.644-0.055 1.222 1.973 0.861 4.036 1.127 5.801 1.138 2.278-0.056 3.89-0.347 5.804-1.138 0.072-0.579-0.055-1.145-0.055-1.222-0.045-0.486-0.446-0.494-0.628-0.436z">
      </path>
      <path fill="#ed2175" style="fill: var(--color5, #ed2175)"
        d="M10.939 7.010c-1.533 0.349-2.213 2.605-2.205 3.838 0.087 0.726 0.168 1.383 0.652 1.787 2.139 0.223 4.63 0.304 6.579 0.262 0.53-0.004 0.959 0.415 0.959 0.945v1.44c-0 0.973 0.963 1.641 1.861 1.311v1.476c0 0.765 0.632 1.397 1.397 1.397s1.393-0.632 1.393-1.397v-0.55c0.146 0.053 0.301 0.087 0.464 0.087 0.765 0 1.397-0.633 1.397-1.398v-3.455c0.017-2.134-1.173-3.057-2.162-3.628s-2.136-0.618-3.261-0.563c-1.125 0.055-2.252 0.214-3.233 0.164s-1.775-0.28-2.392-0.982c-0.482-0.456-0.836-0.679-1.448-0.735z">
      </path>
      <path fill="#ffa185" style="fill: var(--color1, #ffa185)"
        d="M20.18 19.466c-0.765-0-1.397-0.632-1.397-1.397v-1.476c-0.146 0.052-0.302 0.082-0.464 0.082-0.765-0-1.397-0.628-1.397-1.393v-0.491c-2.322 0.080-4.612-0.029-5.919-0.235s-1.518 0.002-1.519 0.26c-0.007 1.86-0.036 3.396 0.964 4.496 1.743 0.752 3.866 1.049 5.543 1.078 1.71 0.021 3.616-0.216 4.187-0.924z">
      </path>
      <path fill="#ed2175" style="fill: var(--color5, #ed2175)"
        d="M13.549 2.559c-0.47 0.502-0.697 1.12-0.774 1.758 0.029-0.001 0.057-0.006 0.086-0.005v0.001c0.492 0.005 1.019 0.23 1.552 0.674 0.006 0.006 0.012 0.012 0.017 0.018 0.386 0.355 0.846 0.467 1.425 0.504s1.246-0.021 1.932 0.035c0.361 0.029 0.734 0.098 1.093 0.239 0.106-0.457 0.119-0.831 0.045-1.156-0.097-0.427-0.355-0.727-0.583-0.924s-0.423-0.326-0.529-0.45c-0.339-0.412 0.061-0.796-0.426-1.473-0.216-0.277-0.604-0.44-1.458-0.355s-1.787 0.499-2.382 1.134z">
      </path>
      <path fill="#d9216d" style="fill: var(--color6, #d9216d)"
        d="M13.078 3.251v0.001c-0.164 0.336-0.258 0.697-0.302 1.065 0.585 0.087 1.223 0.338 1.637 0.669 0.006 0.005 0.012 0.012 0.017 0.018 0.386 0.355 0.846 0.467 1.425 0.504s1.246-0.021 1.932 0.034c0.361 0.029 0.734 0.097 1.093 0.238 0.102-0.44 0.116-0.801 0.051-1.118-0.368-0.11-0.73-0.169-1.059-0.195-0.8-0.065-1.493-0.007-1.95-0.034h-0.004c-0.376 0.032-0.572-0.144-0.817-0.276-0.605-0.504-1.299-0.844-2.026-0.906z">
      </path>
      <path fill="#ed2175" style="fill: var(--color5, #ed2175)"
        d="M12.862 4.312c-0.070-0.001-0.14 0.003-0.209 0.012-0.551 0.067-0.977 0.414-1.26 0.816s-0.45 0.875-0.532 1.325c-0.037 0.203-0.057 0.399-0.058 0.588 0.045-0.014 0.088-0.032 0.135-0.043 0.612 0.055 0.966 0.279 1.448 0.735 0.617 0.702 1.411 0.932 2.392 0.982s2.108-0.109 3.233-0.164c1.022-0.050 2.061-0.012 2.984 0.423-0.24-1.244-0.642-2.081-1.196-2.62-0.592-0.577-1.324-0.768-2.011-0.824s-1.354 0.002-1.932-0.034c-0.579-0.037-1.039-0.149-1.425-0.504-0.006-0.006-0.011-0.012-0.017-0.018v0c-0.533-0.444-1.060-0.669-1.552-0.674z">
      </path>
      <path fill="#e07a5f" style="fill: var(--color2, #e07a5f)"
        d="M9.486 14.816c-0.002 0.614-0.022 0.863 0.009 1.403 2.361 0.382 5.318 0.498 7.428 0.432v0.491c0 0.765 0.632 1.393 1.397 1.393 0.162 0 0.318-0.030 0.464-0.082v1.476c0 0.070 0.011 0.137 0.021 0.203 0.623-0.147 1.129-0.36 1.376-0.667-0.765-0-1.397-0.632-1.397-1.397v-1.476c-0.146 0.052-0.302 0.082-0.464 0.082-0.765-0-1.397-0.628-1.397-1.393v-0.491c-2.322 0.080-4.612-0.029-5.919-0.235s-1.518 0.002-1.519 0.26z">
      </path>
      <path fill="#ffccbc" style="fill: var(--color3, #ffccbc)"
        d="M17.002 15.721c-0.157-0.9-0.079-1.895-0.079-2.838-2.266 0.054-4.576-0.037-6.888-0.336-0.803 0.012-1.472 0.703-1.469 1.304 0.009 0.275 0.026 0.479 0.075 0.669s0.164 0.401 0.34 0.519c0.351 0.234 0.631 0.216 1.908 0.402 1.35 0.252 3.722 0.365 6.113 0.28z">
      </path>
      <path fill="#d9216d" style="fill: var(--color6, #d9216d)"
        d="M10.987 5.982c-0.129 0.352-0.157 0.725-0.183 1.071 0.636-0.042 1.232 0.364 1.583 0.692 0.617 0.702 1.411 0.932 2.392 0.982s2.108-0.109 3.233-0.164c1.020-0.050 2.056-0.012 2.978 0.42-0.090-0.461-0.198-0.877-0.332-1.231-0.923-0.264-1.857-0.271-2.697-0.23-1.189 0.059-2.3 0.207-3.129 0.165-1.77-0.047-2.274-1.697-3.843-1.705v-0z">
      </path>
      <path fill="#d9216d" style="fill: var(--color6, #d9216d)"
        d="M16.398 1.378c-0.156 0.016-0.307 0.036-0.452 0.059 0.6 0.222 0.735 0.763 0.786 1.297-0.002 0.503 0.371 0.717 0.683 0.968 0.228 0.196 0.486 0.497 0.583 0.924 0.062 0.273 0.063 0.58-0.002 0.943-0.019 0.383 0.599 0.581 0.874 0.797 0.503 0.49 0.881 1.226 1.126 2.29 0.051 0.306 0.157 0.322 0.347 0.47 0.989 0.572 2.179 1.494 2.162 3.628v3.455c0 0.601-0.392 1.116-0.931 1.31 0.146 0.053 0.301 0.087 0.464 0.087 0.765 0 1.397-0.633 1.397-1.398v-3.455c0.017-2.134-1.173-3.056-2.162-3.628-0.091-0.052-0.184-0.096-0.277-0.14-0.24-1.244-0.642-2.081-1.196-2.62-0.281-0.274-0.593-0.458-0.917-0.585 0.106-0.457 0.119-0.83 0.045-1.155-0.097-0.427-0.355-0.727-0.583-0.924-0.387-0.295-0.722-0.509-0.683-0.968 0.014-0.87-0.493-1.407-1.263-1.356v0zM21.573 17.519c-0.147 0.053-0.302 0.087-0.466 0.087s-0.318-0.034-0.464-0.087v0.55c0 0.601-0.39 1.115-0.928 1.31 0.146 0.053 0.302 0.087 0.465 0.087 0.765 0 1.393-0.632 1.393-1.397zM15.034 12.897c-0.248 0.005-0.524 0.004-0.787 0.005 0.291 0.004 0.561 0.001 0.839 0-0.017-0.001-0.034-0.005-0.052-0.005zM17.852 16.594c0.001 0 0.001 0.001 0.002 0.001v-0.001c-0.001 0-0.001-0-0.002 0z">
      </path>
      <path fill="#e89c87" style="fill: var(--color4, #e89c87)"
        d="M8.606 13.512c2.373 0.263 4.535 0.322 6.443 0.315 0.521-0.004 0.94 0.409 0.932 0.93-0.005 0.327-0.006 0.655 0.006 0.978 0.338-0.004 0.676-0.002 1.014-0.014-0.102-0.907-0.054-1.84-0.079-2.838-2.266 0.054-4.576-0.037-6.888-0.336-0.848-0.062-1.305 0.459-1.428 0.965z">
      </path>
    </symbol>
    <symbol id="icon-Vector" viewBox="0 0 22 32">
      <path fill="none" stroke="#d41443" style="stroke: var(--color1, #d41443)" stroke-linejoin="round"
        stroke-linecap="round" stroke-miterlimit="4" stroke-width="6.4" d="M3.321 3.2l14.974 12.8-14.974 12.8"></path>
    </symbol>
    <symbol id="icon-phone" viewBox="0 0 32 32">
      <path
        d="M22 20c-2 2-2 4-4 4s-4-2-6-4-4-4-4-6 2-2 4-4-4-8-6-8-6 6-6 6c0 4 4.109 12.109 8 16s12 8 16 8c0 0 6-4 6-6s-6-8-8-6z">
      </path>
    </symbol>
    <symbol id="icon-envelop" viewBox="0 0 32 32">
      <path
        d="M29 4h-26c-1.65 0-3 1.35-3 3v20c0 1.65 1.35 3 3 3h26c1.65 0 3-1.35 3-3v-20c0-1.65-1.35-3-3-3zM12.461 17.199l-8.461 6.59v-15.676l8.461 9.086zM5.512 8h20.976l-10.488 7.875-10.488-7.875zM12.79 17.553l3.21 3.447 3.21-3.447 6.58 8.447h-19.579l6.58-8.447zM19.539 17.199l8.461-9.086v15.676l-8.461-6.59z">
      </path>
    </symbol>
    <symbol id="icon-user" viewBox="0 0 32 32">
      <path
        d="M18 22.082v-1.649c2.203-1.241 4-4.337 4-7.432 0-4.971 0-9-6-9s-6 4.029-6 9c0 3.096 1.797 6.191 4 7.432v1.649c-6.784 0.555-12 3.888-12 7.918h28c0-4.030-5.216-7.364-12-7.918z">
      </path>
    </symbol>
    <symbol id="icon-bubble" viewBox="0 0 32 32">
      <path
        d="M16 6c-1.717 0-3.375 0.271-4.928 0.804-1.46 0.502-2.76 1.211-3.863 2.108-2.069 1.681-3.209 3.843-3.209 6.088 0 1.259 0.35 2.481 1.039 3.63 0.711 1.185 1.781 2.268 3.093 3.133 0.949 0.625 1.587 1.623 1.755 2.747 0.056 0.375 0.091 0.753 0.105 1.129 0.233-0.194 0.461-0.401 0.684-0.624 0.755-0.755 1.774-1.172 2.828-1.172 0.168 0 0.336 0.011 0.505 0.032 0.655 0.083 1.325 0.126 1.99 0.126 1.717 0 3.375-0.271 4.928-0.804 1.46-0.502 2.76-1.211 3.863-2.108 2.069-1.681 3.209-3.843 3.209-6.088s-1.14-4.407-3.209-6.088c-1.104-0.897-2.404-1.606-3.863-2.108-1.553-0.534-3.211-0.804-4.928-0.804zM16 2v0c8.837 0 16 5.82 16 13s-7.163 13-16 13c-0.849 0-1.682-0.054-2.495-0.158-3.437 3.437-7.539 4.053-11.505 4.144v-0.841c2.142-1.049 4-2.961 4-5.145 0-0.305-0.024-0.604-0.068-0.897-3.619-2.383-5.932-6.024-5.932-10.103 0-7.18 7.163-13 16-13z">
      </path>
    </symbol>
    <symbol id="close" viewBox="0 0 32 32">
      <path
        d="M3.232 1.484l-1.441 1.387 26.965 28 1.441-1.387zM2.512 2.179l26.963 28zM29.208 2.039l-27.278 27.695 1.428 1.404 27.278-27.695zM2.283 30.069l28-26.963z">
      </path>
    </symbol>
    <symbol id="mob-menu" viewBox="0 0 46 32">
      <path d="M0 28.571v2.286h45.714v-2.286zM0 14.857v2.286h45.714v-2.286zM0 1.143v2.286h45.714v-2.286z"></path>
    </symbol>
    <symbol id="icecream" viewBox="0 0 32 32">
      <path fill="#d41442" style="fill: var(--color1, #d41442)"
        d="M31.752 15.999c0 8.657-7.018 15.674-15.674 15.674v0c-8.657 0-15.674-7.018-15.674-15.674v0c0-8.657 7.018-15.674 15.674-15.674v0c8.657 0 15.674 7.018 15.674 15.674z">
      </path>
      <path fill="#fff" style="fill: var(--color2, #fff)"
        d="M16.128 4.63c-3.159 0.024-5.7 1.146-7.345 3.161-1.492 1.827-2.201 4.321-2.302 7.208-0.53 0.168-0.992 0.471-1.31 0.861-0.473 0.582-0.685 1.29-0.691 1.991s0.194 1.417 0.671 2.005c0.327 0.402 0.804 0.705 1.352 0.869l0.059 4.374 0.006 0.049c0.141 1.237 0.924 2.209 1.839 2.886 0.631 0.467 1.348 0.806 2.102 0.938-0.012 0.386-0.042 0.422 0.014 2.286l2.060-0.061c-0.053-1.787-0.026-1.801-0.012-2.167l6.822 0.016 0.020 2.514 2.060-0.016-0.022-2.642c0.584-0.117 1.178-0.295 1.746-0.645 0.901-0.552 1.696-1.48 2.058-2.757l0.038-0.131 0.073-4.724c0.477-0.16 0.895-0.447 1.18-0.802 0.447-0.556 0.675-1.231 0.718-1.924s-0.105-1.437-0.582-2.056c-0.305-0.396-0.762-0.689-1.287-0.861-0.16-2.913-0.907-5.389-2.379-7.208-1.572-1.938-3.939-3.052-6.838-3.165h-0.024zM16.118 6.695c2.425 0.099 4.107 0.934 5.294 2.399 0.012 0.014 0.020 0.034 0.032 0.047-1.789 1.391-3.569 2.092-5.413 2.112-1.803 0.020-3.727-0.623-5.789-1.942 0.049-0.067 0.087-0.152 0.139-0.216 1.235-1.512 3.052-2.373 5.738-2.401zM22.457 10.946c0.457 1.087 0.746 2.387 0.855 3.891l-14.765 0.014c0.071-1.423 0.315-2.666 0.722-3.723 2.276 1.427 4.546 2.209 6.783 2.183 2.244-0.026 4.394-0.875 6.405-2.367zM23.36 16.9l-0.028 1.819c-1.29 0-2.923 0.002-2.923 0.002l-1.033 0.004 0.008 1.033c0.010 1.397-0.046 2.407-0.184 2.842-0.069 0.218-0.123 0.263-0.148 0.283s-0.089 0.065-0.344 0.069c-0.301 0.006-0.404-0.047-0.443-0.073s-0.089-0.063-0.16-0.271c-0.142-0.416-0.198-1.421-0.158-2.797l0.032-1.075-1.075 0.014c0 0-2.096 0.028-4.344 0.047-1.74 0.016-3.050 0.010-4.020 0l-0.026-1.884zM23.3 20.779l-0.065 4.253c-0.232 0.732-0.623 1.166-1.118 1.469-0.517 0.317-1.162 0.469-1.736 0.487l-9.083-0.014c-0.354 0.042-1.089-0.164-1.668-0.594-0.576-0.426-0.958-1.013-1.011-1.447l-0.055-4.075c1.077 0.012 2.314 0.018 4.010 0.002 1.71-0.016 2.622-0.028 3.303-0.038-0.006 0.91 0.028 1.736 0.275 2.454 0.17 0.499 0.481 0.99 0.958 1.312s1.053 0.435 1.635 0.424c0.548-0.010 1.102-0.15 1.546-0.487s0.716-0.817 0.869-1.302c0.224-0.705 0.261-1.528 0.269-2.444 0.515-0.002 1.043 0 1.868 0zM7.253 20.856c0.006 0 0.030 0 0.034 0s0.010 0.002 0.014 0.002z">
      </path>
    </symbol>
    <symbol id="icon-close-icon" viewBox="0 0 32 32">
      <path
        d="M31.439 3.166l-3.166-3.166-12.553 12.553-12.553-12.553-3.166 3.166 12.553 12.553-12.553 12.553 3.166 3.166 12.553-12.553 12.553 12.553 3.166-3.166-12.553-12.553 12.553-12.553z">
      </path>
    </symbol>
    <symbol id="arrow" viewBox="0 0 32 32">
      <path
        d="M18.215 2.539l-4.355 4.364 6.184 6.173-20.044 0.080 0.023 6.164 19.586-0.078-6.586 6.142 4.205 4.508 14.678-13.688z">
      </path>
    </symbol>
  </defs>
</svg>